<?xml version="1.0" encoding="UTF-8"?>
<svg width="100px" height="100px" viewBox="0 0 100 100" version="1.1" xmlns="http://www.w3.org/2000/svg" xmlns:xlink="http://www.w3.org/1999/xlink">
    <!-- Generator: Sketch 64 (93537) - https://sketch.com -->
    <title>Combined Shape</title>
    <desc>Created with Sketch.</desc>
    <g id="Page-1" stroke="none" stroke-width="1" fill="none" fill-rule="evenodd">
        <path d="M97,0 C98.6568542,-3.04359188e-16 100,1.34314575 100,3 L100,97 C100,98.6568542 98.6568542,100 97,100 L3,100 C1.34314575,100 2.02906125e-16,98.6568542 0,97 L0,3 C-2.02906125e-16,1.34314575 1.34314575,3.04359188e-16 3,0 L97,0 Z M49.0326726,17 C47.4938251,17 46.2449054,18.2475259 46.2449054,19.7877673 L46.2449054,19.7877673 L46.2449054,27.0889298 L33.7877673,27.0889298 C32.2489197,27.0889298 31,28.3378495 31,29.8766971 L31,29.8766971 L31,70.5056174 C31,72.0444649 32.2489197,73.2933846 33.7877673,73.2933846 L33.7877673,73.2933846 L46.2435115,73.2933846 L46.2435115,80.5917594 C46.2435115,82.1306069 47.4924312,83.3795266 49.0312787,83.3795266 C50.5701263,83.3795266 51.819046,82.1306069 51.819046,80.5917594 L51.819046,80.5917594 L51.819046,73.2933846 L56.80218,73.2933846 C63.9402581,73.2933846 69.7471774,67.4864654 69.7471774,60.3483873 C69.7471774,56.2322489 67.8082852,52.564941 64.8030721,50.193945 C67.8082852,47.8201611 69.7485713,44.1528533 69.7485713,40.0339271 C69.7485713,32.895849 63.941652,27.0889298 56.8035739,27.0889298 L56.8035739,27.0889298 L51.8204399,27.0889298 L51.8204399,19.7877673 C51.8204399,18.2475259 50.5715202,17 49.0326726,17 Z M46.2449054,52.9817122 L46.2449054,67.7178501 L36.5755346,67.7178501 L36.5755346,52.9817122 L46.2449054,52.9817122 Z M56.80218,52.9817122 C60.8653508,52.9817122 64.1716428,56.2866104 64.1716428,60.3483873 C64.1716428,64.412952 60.8653508,67.7178501 56.80218,67.7178501 L56.80218,67.7178501 L51.819046,67.7178501 L51.819046,52.9817122 Z M46.2449054,32.6644643 L46.2449054,47.4061777 L36.5755346,47.4061777 L36.5755346,32.6644643 L46.2449054,32.6644643 Z M56.80218,32.6644643 C60.8653508,32.6644643 64.1716428,35.9693624 64.1716428,40.0339271 C64.1716428,44.0984918 60.8653508,47.4061777 56.80218,47.4061777 L56.80218,47.4061777 L51.819046,47.4061777 L51.819046,32.6644643 Z" id="Combined-Shape" fill="#FF9800"></path>
    </g>
</svg>