<?xml version="1.0" encoding="UTF-8"?>
<svg width="100px" height="100px" viewBox="0 0 100 100" version="1.1" xmlns="http://www.w3.org/2000/svg" xmlns:xlink="http://www.w3.org/1999/xlink">
    <!-- Generator: Sketch 64 (93537) - https://sketch.com -->
    <title>Combined Shape</title>
    <desc>Created with Sketch.</desc>
    <g id="Page-1" stroke="none" stroke-width="1" fill="none" fill-rule="evenodd">
        <path d="M97,0 C98.6568542,-3.04359188e-16 100,1.34314575 100,3 L100,97 C100,98.6568542 98.6568542,100 97,100 L3,100 C1.34314575,100 2.02906125e-16,98.6568542 0,97 L0,3 C-2.02906125e-16,1.34314575 1.34314575,3.04359188e-16 3,0 L97,0 Z M49.7736842,20.0492193 C42.2473684,21.6891506 33.0789474,29.8888072 33.0789474,35.7652278 C33.0789474,36.9268458 33.2842105,38.0201333 33.9,39.0450904 C27.2631579,41.299996 22.9526316,44.9898414 22.9526316,49.0896697 C22.9526316,51.5495667 23.4315789,53.8728027 25.1421053,55.8543864 C20.0789474,58.5192748 17,62.0041289 17,65.8306353 C17,74.1669528 21.3789474,81 49.5,81 C77.6210526,81 82,74.2352833 82,65.8306353 C82,62.0041289 78.9210526,58.5192748 73.9263158,55.8543864 C75.6368421,53.9411332 76.1157895,51.6178972 76.1157895,49.0896697 C76.1157895,44.921511 71.8052632,41.299996 65.1684211,39.0450904 C65.7842105,38.0884638 65.9894737,36.9268458 65.9894737,35.7652278 C65.9894737,29.3421634 47.2421053,32.4170346 51.6210526,22.5091163 C52.2368421,21.2108373 51.0736842,19.7075669 49.7736842,20.0492193 Z M58.5127891,60 C59.4796784,60 60.1703136,60.8724832 59.963123,61.8120805 C58.9962337,66.5100671 54.6452321,70 49.5345318,70 C44.4238314,70 40.0728298,66.5100671 39.036877,61.8120805 C38.8296864,60.8724832 39.5203216,60 40.4872109,60 L58.5127891,60 Z M41,46 C43.1935484,46 45,47.8064516 45,50 C45,52.1935484 43.1935484,54 41,54 C38.7419355,54 37,52.1935484 37,50 C37,47.8064516 38.8064516,46 41,46 Z M58,46 C60.1935484,46 62,47.8064516 62,50 C62,52.1935484 60.2580645,54 58,54 C55.8064516,54 54,52.1935484 54,50 C54,47.8064516 55.8064516,46 58,46 Z" id="Combined-Shape" fill="#795548"></path>
    </g>
</svg>