<?xml version="1.0" encoding="UTF-8"?>
<svg width="100px" height="100px" viewBox="0 0 100 100" version="1.1" xmlns="http://www.w3.org/2000/svg" xmlns:xlink="http://www.w3.org/1999/xlink">
    <!-- Generator: Sketch 64 (93537) - https://sketch.com -->
    <title>Shape</title>
    <desc>Created with Sketch.</desc>
    <g id="Page-1" stroke="none" stroke-width="1" fill="none" fill-rule="evenodd">
        <path d="M97,0 C98.6568542,-3.04359188e-16 100,1.34314575 100,3 L100,97 C100,98.6568542 98.6568542,100 97,100 L3,100 C1.34314575,100 2.02906125e-16,98.6568542 0,97 L0,3 C-2.02906125e-16,1.34314575 1.34314575,3.04359188e-16 3,0 L97,0 Z M53.4513674,27 C43.5784896,27 35.1552508,33.1024226 31.8405955,41.649717 L31.8405955,41.649717 L26.7877673,41.649717 C25.2489197,41.649717 24,42.8986368 24,44.4374843 C24,45.9763319 25.2489197,47.2252516 26.7877673,47.2252516 L26.7877673,47.2252516 L30.4578629,47.2252516 C30.3700482,48.0281286 30.3184745,48.8407627 30.3184745,49.6659418 C30.3184745,50.4897271 30.3700482,51.3023612 30.4578629,52.1038443 L30.4578629,52.1038443 L26.7877673,52.1038443 C25.2489197,52.1038443 24,53.3527641 24,54.8916116 C24,56.4304591 25.2489197,57.6793789 26.7877673,57.6793789 L26.7877673,57.6793789 L31.8392016,57.6793789 C35.1538569,66.2280672 43.5784896,72.3304898 53.4513674,72.3304898 C57.2106716,72.3304898 60.9448858,71.4272532 64.2483901,69.7155641 C65.614396,69.0074712 66.1496473,67.3236598 65.4415545,65.9576538 C64.7334616,64.5916478 63.0524379,64.0619721 61.6836442,64.7644894 C59.170472,66.0677706 56.3241616,66.7563491 53.4513674,66.7563491 C46.7453932,66.7563491 40.9105963,63.0737086 37.9541691,57.6807728 L37.9541691,57.6807728 L55.0111232,57.6807728 C56.5499707,57.6807728 57.7988905,56.431853 57.7988905,54.8930055 C57.7988905,53.354158 56.5499707,52.1052382 55.0111232,52.1052382 L55.0111232,52.1052382 L36.0947283,52.1052382 C35.9762482,51.3065429 35.8940091,50.4980904 35.8940091,49.6673357 C35.8940091,48.8365811 35.9762482,48.0253408 36.0947283,47.2266455 L36.0947283,47.2266455 L55.0111232,47.2266455 C56.5499707,47.2266455 57.7988905,45.9777257 57.7988905,44.4388782 C57.7988905,42.9000307 56.5499707,41.6511109 55.0111232,41.6511109 L55.0111232,41.6511109 L37.955563,41.6511109 C40.9119902,36.2581751 46.7453932,32.5769284 53.4513674,32.5769284 C55.7289733,32.5769284 57.9424605,32.9950935 60.0346798,33.8202726 C61.2389953,34.2927992 62.3973126,34.906108 63.4817541,35.6392908 C64.7571576,36.5021048 66.489755,36.1675727 67.3525689,34.893563 C68.2153829,33.6181595 67.8808508,31.8855622 66.6054473,31.0199604 C65.1822921,30.0553929 63.6587773,29.2511221 62.0767194,28.6308439 C59.3335564,27.5491902 56.4314906,27 53.4513674,27 Z" id="Shape" fill="#03A9F4" fill-rule="nonzero"></path>
    </g>
</svg>