<?xml version="1.0" encoding="UTF-8"?>
<svg width="100px" height="100px" viewBox="0 0 100 100" version="1.1" xmlns="http://www.w3.org/2000/svg" xmlns:xlink="http://www.w3.org/1999/xlink">
    <!-- Generator: Sketch 64 (93537) - https://sketch.com -->
    <title>Combined Shape</title>
    <desc>Created with Sketch.</desc>
    <g id="Page-1" stroke="none" stroke-width="1" fill="none" fill-rule="evenodd">
        <path d="M97,0 C98.6568542,0 100,1.34314575 100,3 L100,3 L100,97 C100,98.6568542 98.6568542,100 97,100 L97,100 L3,100 C1.34314575,100 -2.02906125e-16,98.6568542 0,97 L0,97 L0,3 C2.02906125e-16,1.34314575 1.34314575,0 3,0 L3,0 Z M16.5,65 C15.6,65 15,65.65 15,66.625 L15,66.625 L15,76.375 L15.0055041,76.534435 C15.0675926,77.420216 15.65,78 16.5,78 C17.4,78 18,77.35 18,76.375 L18,76.375 L18,66.625 L17.9944959,66.465565 C17.9324074,65.579784 17.35,65 16.5,65 Z M60.5,65 C59.6,65 59,65.65 59,66.625 L59,66.625 L59,76.375 L59.0055041,76.534435 C59.0675926,77.420216 59.65,78 60.5,78 C61.4,78 62,77.35 62,76.375 L62,76.375 L62,66.625 L61.9931842,66.465565 C61.9166667,65.579784 61.2083333,65 60.5,65 Z M27.5,51 C26.6,51 26,51.6585366 26,52.6463415 L26,52.6463415 L26,76.3536585 L26.0055041,76.5151874 C26.0675926,77.4126016 26.65,78 27.5,78 C28.4,78 29,77.3414634 29,76.3536585 L29,76.3536585 L29,52.6463415 L28.9931842,52.5092875 C28.9166667,51.734248 28.2083333,51 27.5,51 Z M49.5,51 C48.6,51 48,51.6585366 48,52.6463415 L48,52.6463415 L48,76.3536585 L48.0055041,76.5151874 C48.0675926,77.4126016 48.65,78 49.5,78 C50.4,78 51,77.3414634 51,76.3536585 L51,76.3536585 L51,52.6463415 L50.9944959,52.5092875 C50.9324074,51.734248 50.35,51 49.5,51 Z M38.5,43 C37.6,43 37,43.6542056 37,44.635514 L37,44.635514 L37,76.364486 L37.0055041,76.5249526 C37.0675926,77.4164648 37.65,78 38.5,78 C39.4,78 40,77.3457944 40,76.364486 L40,76.364486 L40,44.635514 L39.9944959,44.4750474 C39.9324074,43.5835352 39.35,43 38.5,43 Z M71.5,51 C70.6,51 70,51.6585366 70,52.6463415 L70,52.6463415 L70,76.3536585 L70.0055041,76.5151874 C70.0675926,77.4126016 70.65,78 71.5,78 C72.4,78 73,77.3414634 73,76.3536585 L73,76.3536585 L73,52.6463415 L72.9944959,52.5092875 C72.9324074,51.734248 72.35,51 71.5,51 Z M82.5,43 C81.6,43 81,43.6542056 81,44.635514 L81,44.635514 L81,76.364486 L81.0055041,76.5249526 C81.0675926,77.4164648 81.65,78 82.5,78 C83.4,78 84,77.3457944 84,76.364486 L84,76.364486 L84,44.635514 L83.9931842,44.4750474 C83.9166667,43.5835352 83.2083333,43 82.5,43 Z M82.6965389,22 C79.0617119,22 76.0877626,24.9128631 76.0877626,28.473029 C76.0877626,29.9294606 76.5834208,31.2240664 77.2442985,32.1950207 L77.2442985,32.1950207 L63.6963071,43.6846473 L63.4563474,43.5981068 C61.3657843,42.8775165 59.0028521,42.9294606 57.2527503,44.3319502 L57.2527503,44.3319502 L43.3743201,34.1369295 L43.5052792,33.8682331 C43.9273272,32.9600151 44.2004172,31.930215 44.2004172,30.9004149 C44.2004172,27.340249 41.2264678,24.4273859 37.5916409,24.4273859 C33.9568139,24.4273859 30.9828646,27.340249 30.9828646,30.9004149 C30.9828646,32.6804979 31.6437423,34.2987552 32.9654975,35.4315353 L32.9654975,35.4315353 L18.4261897,48.2157676 L18.2009144,48.1661709 C14.1468159,47.3338843 10.1622154,49.7604677 10,54.526971 C10,58.0871369 12.9739493,61 16.6087763,61 C20.2436032,61 23.2175525,58.0871369 23.2175525,54.526971 C23.2175525,52.746888 22.5566749,51.1286307 21.2349196,49.9958506 L21.2349196,49.9958506 L35.4437886,37.2116183 L35.7726693,37.2850947 C37.6273364,37.6596358 39.3264447,37.3284924 40.7308096,36.5643154 L40.7308096,36.5643154 L54.6092398,46.9211618 L54.5893874,46.9556053 C54.0602736,47.9242207 52.0758755,55.3485477 60.5571384,56.3070539 C64.1919653,56.3070539 67.1659147,53.3941909 67.1659147,49.8340249 C67.1659147,48.3775934 66.6702564,47.0829876 65.8441594,45.9502075 L65.8441594,45.9502075 L79.3921507,34.6224066 L79.6215463,34.7469067 C80.3998526,35.1359693 81.3147038,35.2697095 82.3661001,35.2697095 C86.000927,35.2697095 88.9748763,32.3568465 88.9748763,28.7966805 C89.3053151,24.9128631 86.3313658,22 82.6965389,22 Z M16.6087763,51.4522822 C18.4261897,51.4522822 19.9131644,52.9087137 19.9131644,54.6887967 C19.9131644,56.4688797 18.5914091,57.9253112 16.6087763,57.9253112 C14.7913628,57.9253112 13.3043881,56.4688797 13.3043881,54.6887967 C13.3043881,52.9087137 14.7913628,51.4522822 16.6087763,51.4522822 Z M60.8875772,46.4356846 C62.7049907,46.4356846 64.1919653,47.8921162 64.1919653,49.6721992 C64.1919653,51.4522822 62.7049907,52.9087137 60.8875772,52.9087137 C59.0701637,52.9087137 57.5831891,51.4522822 57.5831891,49.6721992 C57.5831891,47.8921162 59.0701637,46.4356846 60.8875772,46.4356846 Z M37.4264215,27.8257261 C39.243835,27.8257261 40.7308096,29.2821577 40.7308096,31.0622407 C40.7308096,32.8423237 39.4090544,34.2987552 37.4264215,34.2987552 C35.609008,34.2987552 34.1220334,32.8423237 34.1220334,31.0622407 C34.1220334,29.2821577 35.609008,27.8257261 37.4264215,27.8257261 Z M82.6965389,25.3983402 C84.5139523,25.3983402 86.000927,26.8547718 86.000927,28.6348548 C86.000927,30.4149378 84.5139523,31.8713693 82.6965389,31.8713693 C80.8791254,31.8713693 79.3921507,30.4149378 79.3921507,28.6348548 C79.3921507,26.8547718 80.8791254,25.3983402 82.6965389,25.3983402 Z" id="Combined-Shape" fill="#B778FF"></path>
    </g>
</svg>