<?xml version="1.0" encoding="UTF-8"?>
<svg width="100px" height="100px" viewBox="0 0 100 100" version="1.1" xmlns="http://www.w3.org/2000/svg" xmlns:xlink="http://www.w3.org/1999/xlink">
    <!-- Generator: Sketch 64 (93537) - https://sketch.com -->
    <title>Combined Shape</title>
    <desc>Created with Sketch.</desc>
    <g id="Page-1" stroke="none" stroke-width="1" fill="none" fill-rule="evenodd">
        <path d="M97,0 C98.6568542,-3.04359188e-16 100,1.34314575 100,3 L100,97 C100,98.6568542 98.6568542,100 97,100 L3,100 C1.34314575,100 2.02906125e-16,98.6568542 0,97 L0,3 C-2.02906125e-16,1.34314575 1.34314575,3.04359188e-16 3,0 L97,0 Z M54.7257395,19 L35.5305679,19 C33.9917203,19 32.7428006,20.2489197 32.7428006,21.7877673 L32.7428006,21.7877673 L32.7428006,48.5322127 L29.7877673,48.5322127 C28.2489197,48.5322127 27,49.7797385 27,51.3199799 C27,52.8588275 28.2489197,54.1077472 29.7877673,54.1077472 L29.7877673,54.1077472 L32.7428006,54.1077472 L32.7428006,60.2687129 L29.7877673,60.2687129 C28.2489197,60.2687129 27,61.5162387 27,63.0564802 C27,64.5953277 28.2489197,65.8442474 29.7877673,65.8442474 L29.7877673,65.8442474 L32.7428006,65.8442474 L32.7428006,78.3459898 C32.7428006,79.8848373 33.9917203,81.1337571 35.5305679,81.1337571 C37.0694154,81.1337571 38.3183351,79.8848373 38.3183351,78.3459898 L38.3183351,78.3459898 L38.3183351,65.8442474 L55.9230855,65.8442474 C57.461933,65.8442474 58.7108528,64.5953277 58.7108528,63.0564802 C58.7108528,61.5162387 57.461933,60.2687129 55.9230855,60.2687129 L55.9230855,60.2687129 L38.3183351,60.2687129 L38.3183351,54.1077472 L54.7257395,54.1077472 C64.4062613,54.1077472 72.2830978,46.2336985 72.2830978,36.5545705 C72.2830978,26.8754426 64.4062613,19 54.7257395,19 L54.7257395,19 Z M54.7257395,24.5755346 C61.331354,24.5755346 66.7075632,29.948956 66.7075632,36.5545705 C66.7075632,43.1601851 61.331354,48.5336065 54.7257395,48.5336065 L54.7257395,48.5336065 L38.3183351,48.5336065 L38.3183351,24.5755346 Z" id="Combined-Shape" fill="#009688" fill-rule="nonzero"></path>
    </g>
</svg>