<?xml version="1.0" encoding="UTF-8"?>
<svg width="100px" height="100px" viewBox="0 0 100 100" version="1.1" xmlns="http://www.w3.org/2000/svg" xmlns:xlink="http://www.w3.org/1999/xlink">
    <!-- Generator: Sketch 64 (93537) - https://sketch.com -->
    <title>Combined Shape</title>
    <desc>Created with Sketch.</desc>
    <g id="Page-1" stroke="none" stroke-width="1" fill="none" fill-rule="evenodd">
        <path d="M97,0 C98.6568542,-3.04359188e-16 100,1.34314575 100,3 L100,97 C100,98.6568542 98.6568542,100 97,100 L3,100 C1.34314575,100 2.02906125e-16,98.6568542 0,97 L0,3 C-2.02906125e-16,1.34314575 1.34314575,3.04359188e-16 3,0 L97,0 Z M26.6181409,52 L17.3601421,52 L17.2291596,52.0061671 C16.5394681,52.0714473 16,52.646922 16,53.3470836 L16,53.3470836 L16,77.1578378 L16.0062269,77.2875628 C16.0721399,77.9706326 16.6531933,78.5049214 17.3601421,78.5049214 L17.3601421,78.5049214 L26.6181409,78.5049214 L26.7491234,78.4987543 C27.4388149,78.4334741 27.978283,77.8579994 27.978283,77.1578378 L27.978283,77.1578378 L27.978283,76.6276046 L41.788906,79.4205173 L42.509515,79.5568371 C44.1922437,79.853454 45.8833622,80 47.5668536,80 C52.8613131,80 58.072092,78.5470178 62.658587,75.7351125 L62.658587,75.7351125 L81.2715477,64.325683 L81.4733816,64.196165 C83.984365,62.5101516 84.7579848,59.1189063 83.1835834,56.5200968 C82.3686936,55.1749865 81.0689874,54.2403158 79.5248808,53.8890743 C77.9834306,53.5378327 76.4008043,53.8173788 75.1163732,54.648782 L75.1163732,54.648782 L61.0956355,63.0111584 L61.0423675,62.7130987 C60.9812959,62.4160642 60.8961053,62.1225099 60.7804219,61.8360778 C60.2006348,60.400855 59.0211365,59.2925368 57.543443,58.7952735 L57.543443,58.7952735 L50.1450136,56.3063261 L44.6034969,54.0850853 L44.142939,53.9059915 C39.2201772,52.0517385 33.9822367,51.9922663 29.3344403,53.7443679 C28.8524466,53.9262373 28.4068141,54.1255373 27.978283,54.3324837 L27.978283,54.3324837 L27.978283,53.3470836 L27.9720561,53.2173586 C27.9061431,52.5342888 27.3250897,52 26.6181409,52 L26.6181409,52 Z M30.3027447,56.2622566 C34.4515768,54.6987714 39.1662492,54.8119053 43.5827263,56.5819258 L43.5827263,56.5819258 L49.1972974,58.8301346 L56.6681173,61.3460499 L56.8461165,61.413211 C57.4869457,61.6817382 57.9941673,62.1919786 58.2547284,62.8365242 C58.5389769,63.5403227 58.4984648,64.3289718 58.1245586,65.0393478 C56.9118537,67.531584 48.0762429,67.0290587 42.4855804,65.9049542 C41.7490582,65.7582747 41.0311316,66.22857 40.8817019,66.9567055 C40.7322722,67.6861565 41.2077907,68.3971903 41.9436488,68.5451853 C43.2865235,68.8155229 47.3642935,69.5620755 51.4028795,69.5620755 C55.1527342,69.5620755 58.8400775,68.8975779 60.2994245,66.6303764 L60.2994245,66.6303764 L76.5621884,56.9298784 L76.7402511,56.8229551 C77.4028318,56.4543394 78.1682808,56.3442018 78.915872,56.5148346 C79.7327542,56.7003217 80.4201307,57.1949539 80.8511524,57.9066455 C81.7058902,59.3175314 81.2522881,61.1691135 79.8396796,62.0353776 L79.8396796,62.0353776 L61.2267188,73.4448071 L60.8001911,73.70065 C55.2302569,76.9708837 48.6922253,78.0661159 42.3334944,76.7802859 L42.3334944,76.7802859 L27.978283,73.8772814 L27.978283,57.4203176 L28.2604679,57.2400161 C28.8415664,56.8840571 29.5229352,56.5562734 30.3027447,56.2622566 Z M25.2579987,54.6941671 L25.2579987,75.8107543 L18.7202843,75.8107543 L18.7202843,54.6941671 L25.2579987,54.6941671 Z M60.9996628,21 C52.728638,21 46,27.7287891 46,36 C46,44.2712109 52.7286378,51 60.9996628,51 C69.2706877,51 76,44.2712109 76,36 C76,27.7287891 69.2706876,21 60.9996628,21 Z M60.9996628,23.7624657 C67.7478587,23.7624657 73.2375964,29.2523268 73.2375964,36 C73.2375964,42.7476732 67.7478587,48.2375343 60.9996628,48.2375343 C54.2521413,48.2375343 48.7624036,42.7476732 48.7624036,36 C48.7624036,29.2523268 54.2521413,23.7624657 60.9996628,23.7624657 Z" id="Combined-Shape" fill="#B778FF" transform="translate(50.000000, 50.000000) scale(1, -1) translate(-50.000000, -50.000000) "></path>
    </g>
</svg>