<?xml version="1.0" encoding="UTF-8"?>
<svg width="100px" height="100px" viewBox="0 0 100 100" version="1.1" xmlns="http://www.w3.org/2000/svg" xmlns:xlink="http://www.w3.org/1999/xlink">
    <!-- Generator: Sketch 64 (93537) - https://sketch.com -->
    <title>Shape</title>
    <desc>Created with Sketch.</desc>
    <g id="Page-1" stroke="none" stroke-width="1" fill="none" fill-rule="evenodd">
        <path d="M97,0 C98.6568542,-3.04359188e-16 100,1.34314575 100,3 L100,97 C100,98.6568542 98.6568542,100 97,100 L3,100 C1.34314575,100 2.02906125e-16,98.6568542 0,97 L0,3 C-2.02906125e-16,1.34314575 1.34314575,3.04359188e-16 3,0 L97,0 Z M50.3775473,18 C48.8386998,18 47.58978,19.2489197 47.58978,20.7877673 L47.58978,20.7877673 L47.58978,26.5319618 L45.9672995,26.5319618 C38.8166764,26.5319618 33,32.3500321 33,39.4992612 C33,46.5314042 38.6257144,52.2728109 45.6118592,52.463773 C45.6662206,52.4665607 45.7205821,52.4693485 45.7763374,52.4693485 L45.7763374,52.4693485 L54.7933707,52.4693485 C58.8690864,52.4693485 62.1851356,55.7853977 62.1851356,59.8611134 C62.1851356,63.939617 58.8690864,67.2556661 54.7933707,67.2556661 L54.7933707,67.2556661 L38.115553,67.2556661 C36.5767054,67.2556661 35.3277857,68.503192 35.3277857,70.0434334 C35.3277857,71.582281 36.5767054,72.8312007 38.115553,72.8312007 L38.115553,72.8312007 L47.58978,72.8312007 L47.58978,78.5726074 C47.58978,80.1128488 48.8386998,81.3603747 50.3775473,81.3603747 C51.9163949,81.3603747 53.1653146,80.1128488 53.1653146,78.5726074 L53.1653146,78.5726074 L53.1653146,72.8312007 L54.7933707,72.8312007 C61.9439938,72.8312007 67.7606702,67.0145243 67.7606702,59.8611134 C67.7606702,52.7118843 61.9439938,46.8938139 54.7933707,46.8938139 L54.7933707,46.8938139 L45.9672995,46.8938139 C41.8915837,46.8938139 38.5755346,43.5777648 38.5755346,39.4992612 C38.5755346,35.4235455 41.8915837,32.1074963 45.9672995,32.1074963 L45.9672995,32.1074963 L61.9913858,32.1074963 C63.5302333,32.1074963 64.7791531,30.8585766 64.7791531,29.319729 C64.7791531,27.7794876 63.5302333,26.5319618 61.9913858,26.5319618 L61.9913858,26.5319618 L53.1653146,26.5319618 L53.1653146,20.7877673 C53.1653146,19.2489197 51.9163949,18 50.3775473,18 Z" id="Shape" fill="#4CAF50" fill-rule="nonzero"></path>
    </g>
</svg>