<?xml version="1.0" encoding="UTF-8"?>
<svg width="100px" height="100px" viewBox="0 0 100 100" version="1.1" xmlns="http://www.w3.org/2000/svg" xmlns:xlink="http://www.w3.org/1999/xlink">
    <!-- Generator: Sketch 64 (93537) - https://sketch.com -->
    <title>Combined Shape</title>
    <desc>Created with Sketch.</desc>
    <g id="Page-1" stroke="none" stroke-width="1" fill="none" fill-rule="evenodd">
        <path d="M97,0 C98.6568542,-3.04359188e-16 100,1.34314575 100,3 L100,97 C100,98.6568542 98.6568542,100 97,100 L3,100 C1.34314575,100 2.02906125e-16,98.6568542 0,97 L0,3 C-2.02906125e-16,1.34314575 1.34314575,3.04359188e-16 3,0 L97,0 Z M50,15 C30.6700338,15 15,30.6700338 15,50 C15,69.3299662 30.6700338,85 50,85 C69.3299662,85 85,69.3299662 85,50 C84.9796508,30.6784689 69.3215311,15.0203492 50,15 Z M50,18.6919831 C67.2909403,18.6919831 81.3080169,32.7090597 81.3080169,50 C81.2876725,67.2825063 67.2825063,81.2876725 50,81.3080169 C32.7090597,81.3080169 18.6919831,67.2909403 18.6919831,50 C18.6919831,32.7090597 32.7090597,18.6919831 50,18.6919831 Z M50,27.6388889 C48.980487,27.6388889 48.1540084,28.4653675 48.1540084,29.4848805 L48.1540084,29.4848805 L48.1540084,50 C48.1540084,51.019513 48.980487,51.8459916 50,51.8459916 L50,51.8459916 L66.995429,51.8459916 C68.014942,51.8459916 68.8414205,51.019513 68.8414205,50 C68.8414205,48.980487 68.014942,48.1540084 66.995429,48.1540084 L66.995429,48.1540084 L51.8459916,48.1540084 L51.8459916,29.4848805 C51.8459916,28.4653675 51.019513,27.6388889 50,27.6388889 Z" id="Combined-Shape" fill="#607D8B"></path>
    </g>
</svg>